<mxfile host="app.diagrams.net" agent="Mozilla/5.0 (X11; Linux x86_64) AppleWebKit/537.36 (KHTML, like Gecko) Chrome/128.0.0.0 Safari/537.36" version="24.7.16">
  <diagram name="Page-1" id="gUQsovv8CgRf3uNDkBtI">
    <mxGraphModel grid="1" page="1" gridSize="10" guides="1" tooltips="1" connect="1" arrows="1" fold="1" pageScale="1" pageWidth="827" pageHeight="1169" math="0" shadow="0">
      <root>
        <mxCell id="0" />
        <mxCell id="1" parent="0" />
        <mxCell id="NXB384r09ZsPwysb-wbl-1" style="edgeStyle=orthogonalEdgeStyle;rounded=0;orthogonalLoop=1;jettySize=auto;html=1;exitX=1;exitY=0.5;exitDx=0;exitDy=0;entryX=0;entryY=0.5;entryDx=0;entryDy=0;" edge="1" parent="1" source="NXB384r09ZsPwysb-wbl-2" target="NXB384r09ZsPwysb-wbl-7">
          <mxGeometry relative="1" as="geometry">
            <mxPoint x="490" y="281" as="targetPoint" />
          </mxGeometry>
        </mxCell>
        <mxCell id="NXB384r09ZsPwysb-wbl-2" value="frontend" style="rounded=1;whiteSpace=wrap;html=1;strokeWidth=2;fillColor=none;" vertex="1" parent="1">
          <mxGeometry x="326" y="251" width="70" height="60" as="geometry" />
        </mxCell>
        <mxCell id="NXB384r09ZsPwysb-wbl-3" value="" style="endArrow=classic;html=1;rounded=0;entryX=0;entryY=0.5;entryDx=0;entryDy=0;" edge="1" parent="1" target="NXB384r09ZsPwysb-wbl-2">
          <mxGeometry width="50" height="50" relative="1" as="geometry">
            <mxPoint x="250" y="280" as="sourcePoint" />
            <mxPoint x="410" y="361" as="targetPoint" />
          </mxGeometry>
        </mxCell>
        <mxCell id="NXB384r09ZsPwysb-wbl-4" value="assembly" style="text;html=1;align=center;verticalAlign=middle;whiteSpace=wrap;rounded=0;" vertex="1" parent="1">
          <mxGeometry x="517" y="258" width="60" height="30" as="geometry" />
        </mxCell>
        <mxCell id="NXB384r09ZsPwysb-wbl-5" value="Millipascal source" style="text;html=1;align=center;verticalAlign=middle;whiteSpace=wrap;rounded=0;" vertex="1" parent="1">
          <mxGeometry x="254" y="250" width="60" height="30" as="geometry" />
        </mxCell>
        <mxCell id="NXB384r09ZsPwysb-wbl-6" style="edgeStyle=orthogonalEdgeStyle;rounded=0;orthogonalLoop=1;jettySize=auto;html=1;exitX=1;exitY=0.5;exitDx=0;exitDy=0;" edge="1" parent="1" source="NXB384r09ZsPwysb-wbl-7">
          <mxGeometry relative="1" as="geometry">
            <mxPoint x="584" y="280" as="targetPoint" />
            <mxPoint x="573" y="281" as="sourcePoint" />
          </mxGeometry>
        </mxCell>
        <mxCell id="NXB384r09ZsPwysb-wbl-7" value="backend" style="rounded=1;whiteSpace=wrap;html=1;strokeWidth=2;fillColor=none;" vertex="1" parent="1">
          <mxGeometry x="446" y="251" width="69" height="60" as="geometry" />
        </mxCell>
        <mxCell id="sl1bFNsq6AQyADOJ--fT-1" value="PIR +&lt;br&gt;ASM" style="text;html=1;align=center;verticalAlign=middle;whiteSpace=wrap;rounded=0;" vertex="1" parent="1">
          <mxGeometry x="403" y="251" width="36" height="30" as="geometry" />
        </mxCell>
      </root>
    </mxGraphModel>
  </diagram>
</mxfile>
